<?xml version="1.0" standalone="no"?>
<!DOCTYPE svg PUBLIC "-//W3C//DTD SVG 20010904//EN"
 "http://www.w3.org/TR/2001/REC-SVG-20010904/DTD/svg10.dtd">
<svg version="1.0" xmlns="http://www.w3.org/2000/svg"
 width="798.000000pt" height="294.000000pt" viewBox="0 0 798.000000 294.000000"
 preserveAspectRatio="xMidYMid meet">

<g transform="translate(0.000000,294.000000) scale(0.100000,-0.100000)"
fill="#000000" stroke="none">
<path d="M25 2878 c-3 -7 -4 -647 -3 -1423 l3 -1410 3963 -3 3962 -2 0 1425 0
1425 -3960 0 c-3159 0 -3962 -3 -3965 -12z m3885 -595 c0 -247 -4 -443 -9
-437 -4 5 -42 54 -83 109 -85 113 -251 294 -342 373 -67 57 -203 132 -278 152
-29 7 -81 11 -131 8 -141 -7 -219 -59 -280 -184 -67 -135 -27 -283 113 -425
125 -125 287 -222 485 -288 l120 -41 -1662 0 -1663 0 0 590 0 590 1865 0 1865
0 0 -447z m3880 -148 l0 -595 -1667 1 -1668 1 97 33 c304 104 535 269 619 440
31 63 34 78 34 155 0 99 -21 153 -87 220 -134 139 -357 125 -584 -36 -98 -69
-349 -344 -447 -489 l-27 -40 0 453 0 452 1865 0 1865 0 0 -595z m-4554 136
c58 -28 92 -57 216 -183 128 -130 291 -326 327 -395 11 -21 9 -23 -13 -23 -14
0 -37 5 -53 11 -15 6 -53 15 -83 20 -219 39 -476 172 -607 313 -94 102 -111
168 -62 238 49 68 157 76 275 19z m1723 19 c73 -37 93 -132 43 -211 -105 -164
-389 -320 -707 -387 -99 -21 -115 -23 -115 -15 1 14 148 214 208 283 118 134
209 224 267 263 123 84 227 107 304 67z m-1396 -928 c-17 -15 -202 -160 -411
-322 -209 -162 -385 -305 -391 -318 -19 -39 -13 -72 18 -103 42 -42 76 -38
147 15 33 23 264 203 514 399 250 196 458 357 463 357 4 0 7 -268 7 -595 l0
-595 -1865 0 -1865 0 0 595 0 595 1708 0 1707 -1 -32 -27z m1024 -367 c276
-217 513 -397 527 -401 32 -8 83 12 96 37 20 36 12 89 -17 118 -16 14 -202
163 -415 330 -214 166 -388 305 -388 307 0 2 767 4 1705 4 l1705 0 0 -595 0
-595 -1870 0 -1870 0 0 588 c0 324 3 592 7 595 3 4 9 7 12 7 4 0 232 -178 508
-395z"/>
</g>
</svg>
